# xmcd
#
# Track frame offsets: 
#        150
#        5976
#        29365
#        33456
#        54163
#        57078
#        75138
#        81087
#        100253
#        103488
#        145390
#        147360
#        167723
#        169231
#
# Disc length: 2514 seconds
#
# Revision: 0
# Processed by: cddbd v1.5.2PL0 Copyright (c) Steve Scherf et al.
# Submitted via: ExactAudioCopy v1.3
#
DISCID=b809d00e
DTITLE=Michael Packer - I Am The Blues My Story, Vol. 3
DYEAR=2017
DGENRE=Blues
TTITLE0=Blues For Peace (Narration)
TTITLE1=Blues For Peace (Song)
TTITLE2=Fields Of Sorrow (Narration)
TTITLE3=Fields Of Sorrow (Song)
TTITLE4=Yo Staten Island (Narration)
TTITLE5=Yo Staten Island (Song)
TTITLE6=Flash Flame (Narration)
TTITLE7=Flash Flame (Song)
TTITLE8=Chicago (Narration)
TTITLE9=Chicago (Song)
TTITLE10=Do It All Over (Narration)
TTITLE11=Do It All Over (Song)
TTITLE12=Mr. Packer (Narration)
TTITLE13=Mr. Packer (Song)
EXTD=
EXTT0=
EXTT1=
EXTT2=
EXTT3=
EXTT4=
EXTT5=
EXTT6=
EXTT7=
EXTT8=
EXTT9=
EXTT10=
EXTT11=
EXTT12=
EXTT13=
PLAYORDER=
